<svg width="23" height="23" viewBox="0 0 23 23" fill="none" xmlns="http://www.w3.org/2000/svg">
<g clip-path="url(#clip0)">
<path d="M21.1754 3.26035C19.9848 1.96902 18.3511 1.25781 16.5749 1.25781C15.2473 1.25781 14.0314 1.67755 12.961 2.50527C12.4209 2.92308 11.9315 3.43424 11.5 4.03086C11.0687 3.43442 10.5791 2.92308 10.0388 2.50527C8.96858 1.67755 7.75271 1.25781 6.42506 1.25781C4.64889 1.25781 3.01503 1.96902 1.82442 3.26035C0.648033 4.53658 0 6.28011 0 8.16999C0 10.1151 0.724892 11.8957 2.28119 13.7736C3.67342 15.4535 5.67437 17.1588 7.99153 19.1334C8.78275 19.8077 9.67961 20.5721 10.6109 21.3863C10.8569 21.6018 11.1726 21.7204 11.5 21.7204C11.8273 21.7204 12.1431 21.6018 12.3888 21.3867C13.32 20.5723 14.2174 19.8076 15.009 19.1329C17.3258 17.1586 19.3268 15.4535 20.719 13.7735C22.2753 11.8957 23 10.1151 23 8.16982C23 6.28011 22.352 4.53658 21.1754 3.26035Z" fill="#BBBBBB"/>
</g>
<defs>
<clipPath id="clip0">
<rect width="23" height="23" fill="white"/>
</clipPath>
</defs>
</svg>
