<svg width="22" height="22" viewBox="0 0 22 22" fill="none" xmlns="http://www.w3.org/2000/svg">
<path d="M19.871 1.06451H2.12903C0.958064 1.06451 0 2.02258 0 3.19355C0 4.36451 0.958064 5.32258 2.12903 5.32258H19.871C21.0419 5.32258 22 4.36451 22 3.19355C22 2.02258 21.0419 1.06451 19.871 1.06451Z" fill="#BBBBBB"/>
<path d="M19.871 8.87097H2.12903C0.958064 8.87097 0 9.82904 0 11C0 12.171 0.958064 13.129 2.12903 13.129H19.871C21.0419 13.129 22 12.171 22 11C22 9.82904 21.0419 8.87097 19.871 8.87097Z" fill="#BBBBBB"/>
<path d="M19.871 16.6774H2.12903C0.958064 16.6774 0 17.6355 0 18.8065C0 19.9774 0.958064 20.9355 2.12903 20.9355H19.871C21.0419 20.9355 22 19.9774 22 18.8065C22 17.6355 21.0419 16.6774 19.871 16.6774Z" fill="#BBBBBB"/>
</svg>
