<svg width="19" height="19" viewBox="0 0 19 19" fill="none" xmlns="http://www.w3.org/2000/svg">
<g clip-path="url(#clip0)">
<path d="M13.1473 11.2746C15.428 8.05399 14.6652 3.59439 11.4446 1.31419C8.22398 -0.966015 3.76438 -0.203769 1.48418 3.01739C-0.796017 6.238 -0.0337706 10.6971 3.18739 12.9773C5.48611 14.6047 8.52529 14.73 10.9499 13.2982L16.218 18.5347C16.7869 19.1335 17.7333 19.1575 18.3321 18.5887C18.9308 18.0204 18.9548 17.074 18.3865 16.4752C18.3686 16.4561 18.3511 16.4387 18.3321 16.4207L13.1473 11.2746ZM7.31136 11.7628C4.76636 11.7633 2.70301 9.70162 2.70138 7.15662C2.70083 4.61162 4.76255 2.54827 7.30809 2.54718C9.84982 2.54609 11.9121 4.60454 11.917 7.14627C11.9213 9.69181 9.86072 11.7584 7.31463 11.7628C7.31354 11.7628 7.31299 11.7628 7.31136 11.7628Z" fill="white"/>
</g>
<defs>
<clipPath id="clip0">
<rect width="19" height="19" fill="white"/>
</clipPath>
</defs>
</svg>
